<?xml version="1.0" encoding="UTF-8"?>
<svg width="22px" height="16px" viewBox="0 0 22 16" version="1.1" xmlns="http://www.w3.org/2000/svg" xmlns:xlink="http://www.w3.org/1999/xlink">
    <title>ico_menu</title>
    <g id="Page-1" stroke="none" stroke-width="1" fill="none" fill-rule="evenodd">
        <g id="ico_menu" fill="#5E6E89" fill-rule="nonzero">
            <path d="M0.35483871,9 L21.6451613,9 C21.8403226,9 22,8.9 22,8.77777778 L22,7.22222222 C22,7.1 21.8403226,7 21.6451613,7 L0.35483871,7 C0.159677419,7 0,7.1 0,7.22222222 L0,8.77777778 C0,8.9 0.159677419,9 0.35483871,9 Z" id="Path"></path>
            <path d="M21.78,0 L0.22,0 C0.099,0 0,0.1 0,0.222222222 L0,1.77777778 C0,1.9 0.099,2 0.22,2 L21.78,2 C21.901,2 22,1.9 22,1.77777778 L22,0.222222222 C22,0.1 21.901,0 21.78,0 Z" id="Path"></path>
            <path d="M21.78,14 L0.22,14 C0.099,14 0,14.1 0,14.2222222 L0,15.7777778 C0,15.9 0.099,16 0.22,16 L21.78,16 C21.901,16 22,15.9 22,15.7777778 L22,14.2222222 C22,14.1 21.901,14 21.78,14 Z" id="Path"></path>
        </g>
    </g>
</svg>