<?xml version="1.0" encoding="UTF-8"?>
<svg width="16px" height="16px" viewBox="0 0 16 16" version="1.1" xmlns="http://www.w3.org/2000/svg" xmlns:xlink="http://www.w3.org/1999/xlink">
    <title>close-white-icon</title>
    <g id="Page-1" stroke="none" stroke-width="1" fill="none" fill-rule="evenodd">
        <g id="close-white-icon" fill="#484848">
            <path d="M1.5744,0.3808 L1.6704,0.462933333 L7.85493333,6.64853333 L14.0394667,0.462933333 C14.3733333,0.130133333 14.9141333,0.130133333 15.2469333,0.462933333 C15.5498667,0.765866667 15.5776,1.24053333 15.3290667,1.5744 L15.2469333,1.6704 L9.06133333,7.85493333 L15.2469333,14.0394667 C15.5797333,14.3733333 15.5797333,14.9141333 15.2469333,15.2469333 C14.944,15.5498667 14.4693333,15.5776 14.1354667,15.3290667 L14.0394667,15.2469333 L7.85493333,9.06133333 L1.6704,15.2469333 C1.33653333,15.5797333 0.795733333,15.5797333 0.462933333,15.2469333 C0.16,14.944 0.132266667,14.4693333 0.3808,14.1354667 L0.462933333,14.0394667 L6.64853333,7.85493333 L0.462933333,1.6704 C0.130133333,1.33653333 0.130133333,0.795733333 0.462933333,0.462933333 C0.765866667,0.16 1.24053333,0.132266667 1.5744,0.3808 Z" id="Path"></path>
        </g>
    </g>
</svg>