<svg xmlns="http://www.w3.org/2000/svg" xmlns:xlink="http://www.w3.org/1999/xlink" preserveAspectRatio="xMidYMid" width="60" height="66" viewBox="0 0 60 66">
  <defs>
    <style>
      .cls-1 {
        fill: #fff;
        fill-rule: evenodd;
      }
    </style>
  </defs>
  <path d="M59.965,27.816 L57.206,41.778 C56.883,43.414 55.335,44.603 53.544,44.603 L19.407,44.603 L20.511,49.942 L52.939,49.929 C54.217,49.929 55.254,50.970 55.254,52.254 C55.254,53.538 54.217,54.578 52.939,54.578 L18.613,54.592 C17.428,54.592 16.459,53.713 16.311,52.578 L8.328,13.948 L1.692,11.988 C0.453,11.623 -0.247,10.325 0.117,9.095 C0.480,7.852 1.773,7.149 2.998,7.514 L10.953,9.866 C11.667,10.082 12.205,10.609 12.461,11.258 C12.528,11.393 12.568,11.555 12.609,11.717 L14.278,19.827 C14.493,19.814 14.709,19.814 14.938,19.841 L56.654,23.747 C58.821,23.950 60.329,25.815 59.965,27.816 ZM51.794,20.922 L49.641,20.719 L42.883,20.084 L43.125,17.476 C43.448,13.948 40.877,10.825 37.364,10.487 C33.851,10.163 30.741,12.745 30.405,16.273 L30.162,18.881 L23.405,18.246 L21.763,18.097 L21.237,18.043 C20.443,17.962 19.851,17.259 19.972,16.462 L20.187,14.137 C20.255,13.339 20.968,12.745 21.762,12.826 L23.916,13.029 C24.428,11.298 25.276,9.731 26.366,8.379 L24.980,6.703 C24.468,6.081 24.549,5.162 25.168,4.648 L26.959,3.161 C27.578,2.648 28.493,2.729 29.005,3.351 L30.391,5.027 C31.912,4.189 33.608,3.648 35.399,3.472 L35.601,1.310 C35.668,0.512 36.381,-0.082 37.176,-0.001 L39.491,0.215 C40.285,0.282 40.877,0.999 40.797,1.796 L40.595,3.959 C42.318,4.473 43.879,5.324 45.225,6.419 L46.908,5.040 C47.527,4.527 48.443,4.608 48.954,5.229 L50.435,7.027 C50.946,7.649 50.866,8.568 50.246,9.082 L48.577,10.474 C49.412,12.001 49.950,13.704 50.125,15.502 L52.279,15.705 C53.073,15.772 53.666,16.489 53.585,17.286 L53.369,19.611 C53.302,20.409 52.589,21.003 51.794,20.922 ZM25.209,56.701 C27.766,56.701 29.839,58.782 29.839,61.350 C29.839,63.918 27.766,66.000 25.209,66.000 C22.651,66.000 20.578,63.918 20.578,61.350 C20.578,58.782 22.651,56.701 25.209,56.701 ZM47.339,56.701 C49.896,56.701 51.969,58.782 51.969,61.350 C51.969,63.918 49.896,66.000 47.339,66.000 C44.781,66.000 42.708,63.918 42.708,61.350 C42.708,58.782 44.781,56.701 47.339,56.701 Z" class="cls-1"/>
</svg>
