<svg xmlns="http://www.w3.org/2000/svg" xmlns:xlink="http://www.w3.org/1999/xlink" preserveAspectRatio="xMidYMid" width="465" height="612" viewBox="0 0 465 612">
  <defs>
    <style>
      .cls-1 {
        fill: #fff;
        fill-rule: evenodd;
      }
    </style>
  </defs>
  <path d="M465.933,531.748 C465.956,522.176 465.999,530.368 465.933,531.748 ZM232.992,612.000 C34.353,612.000 0.061,542.938 0.061,542.938 C0.061,534.907 0.050,530.302 0.041,527.812 C0.080,529.140 0.180,528.539 0.395,517.091 C3.021,376.896 22.988,336.478 165.454,310.791 C165.454,310.791 185.733,336.602 232.992,336.602 C280.250,336.602 300.525,310.791 300.525,310.791 C444.563,336.761 463.386,377.788 465.670,521.768 C465.816,530.978 465.893,532.571 465.931,531.749 C465.926,534.190 465.922,537.778 465.922,542.938 C465.922,542.938 431.627,612.000 232.992,612.000 ZM232.993,299.308 C164.878,299.308 109.658,232.306 109.658,149.655 C109.658,67.002 127.791,-0.000 232.993,-0.000 C338.195,-0.000 356.325,67.002 356.325,149.655 C356.325,232.306 301.105,299.308 232.993,299.308 ZM0.043,527.811 C0.001,526.392 0.022,522.772 0.043,527.811 Z" class="cls-1"/>
</svg>
