<svg xmlns="http://www.w3.org/2000/svg" xmlns:xlink="http://www.w3.org/1999/xlink" preserveAspectRatio="xMidYMid" width="51" height="50" viewBox="0 0 51 50">
  <defs>
    <style>
      .cls-1 {
        fill: #fff;
        fill-rule: evenodd;
      }
    </style>
  </defs>
  <path d="M50.563,24.898 C51.494,23.873 51.405,22.302 50.362,21.390 L27.384,1.285 C26.341,0.373 24.669,0.392 23.648,1.328 L0.593,22.462 C-0.428,23.398 -0.478,24.967 0.482,25.965 L1.060,26.566 C2.019,27.565 3.569,27.684 4.520,26.832 L6.243,25.289 L6.243,47.879 C6.243,49.266 7.366,50.387 8.751,50.387 L17.738,50.387 C19.123,50.387 20.246,49.266 20.246,47.879 L20.246,32.075 L31.709,32.075 L31.709,47.879 C31.690,49.264 32.680,50.386 34.065,50.386 L43.589,50.386 C44.975,50.386 46.098,49.264 46.098,47.878 L46.098,25.607 C46.098,25.607 46.573,26.023 47.160,26.540 C47.746,27.055 48.977,26.643 49.909,25.616 L50.563,24.898 Z" class="cls-1"/>
</svg>
